<?xml version="1.0" standalone="no"?>
<svg xmlns="http://www.w3.org/2000/svg" viewBox="0 0 31 32" width="31" height="32"><path fill="#000000" fill-rule="nonzero" d="M0 1.25L0 1.25Q0 0.12 0.86 0.12L0.86 0.12Q1.10 0.12 1.34 0.35Q1.58 0.58 1.69 0.90Q1.80 1.22 1.99 1.98Q2.18 2.74 2.47 3.70L2.47 3.70Q3.29 6.43 4.73 8.23L4.73 8.23Q5.52 9.22 6.24 9.22L6.24 9.22Q6.60 9.22 6.77 9.12L6.77 9.12Q7.82 2.42 9.53 0.74L9.53 0.74Q10.25 0.02 11.10 0.02Q11.95 0.02 12.40 0.56Q12.84 1.10 12.84 2.02L12.84 2.02Q12.84 4.01 11.46 6.28Q10.08 8.54 8.45 10.15L8.45 10.15Q8.26 11.35 8.26 13.39Q8.26 15.43 8.38 17.24Q8.50 19.06 8.50 19.42Q8.50 19.78 8.22 20.09Q7.94 20.40 7.51 20.40L7.51 20.40Q6.60 20.40 6.46 18.17L6.46 18.17Q6.43 17.59 6.43 16.13Q6.43 14.66 6.72 10.92L6.72 10.92Q6.43 10.97 6.10 10.97L6.10 10.97Q4.87 10.97 3.88 10.04Q2.88 9.12 1.96 7.15Q1.03 5.18 0.52 3.56Q0 1.94 0 1.25ZM10.94 1.75L10.94 1.75Q10.44 1.75 9.53 4.25Q8.62 6.74 8.52 7.94L8.52 7.94Q9.43 6.89 10.32 5.09Q11.21 3.29 11.21 2.26L11.21 2.26Q11.21 1.75 10.94 1.75ZM17.98 14.40L17.98 14.40L18.10 11.28Q16.51 11.21 15.64 10.52Q14.76 9.84 14.76 8.93Q14.76 8.02 15.64 7.34Q16.51 6.67 18.10 6.43L18.10 6.43Q17.88 2.76 17.88 2.26L17.88 2.26Q17.88 0 22.25 0L22.25 0Q25.32 0 27.01 1.26Q28.70 2.52 28.70 4.39Q28.70 6.26 26.83 7.87L26.83 7.87Q30.02 9.62 30.02 12.53L30.02 12.53Q30.02 14.42 28.85 15.88Q27.67 17.33 25.80 18.02Q23.93 18.72 22.03 18.72L22.03 18.72Q19.92 18.72 18.17 18.20Q16.42 17.69 15.48 16.99Q14.54 16.30 14.54 15.83Q14.54 15.36 14.78 15.11Q15.02 14.86 15.36 14.86L15.36 14.86Q15.36 14.86 15.47 14.86Q15.58 14.86 16.12 15.18Q16.66 15.50 17.34 15.94Q18.02 16.37 19.14 16.70Q20.26 17.04 21.36 17.04L21.36 17.04Q21.43 17.04 21.50 17.04L21.50 17.04Q24.36 17.04 26.23 15.79Q28.10 14.54 28.10 12.58L28.10 12.58Q28.10 11.45 27.43 10.49Q26.76 9.53 25.61 8.95L25.61 8.95Q23.14 10.78 19.82 11.21L19.82 11.21L19.92 14.28Q19.92 14.38 19.92 14.45L19.92 14.45Q19.92 15.07 19.49 15.34L19.49 15.34Q19.22 15.50 18.96 15.50L18.96 15.50L18.43 15.34Q17.98 15.05 17.98 14.40ZM19.78 2.23L19.78 2.23Q19.78 3.07 19.82 6.29L19.82 6.29Q22.73 6.29 25.32 7.20L25.32 7.20Q26.93 5.98 26.93 4.51Q26.93 3.05 25.73 2.36Q24.53 1.68 22.74 1.68Q20.95 1.68 19.78 2.23ZM19.78 7.92L19.78 7.92L19.78 9.58Q20.83 9.53 22.12 9.16Q23.40 8.78 24.12 8.30L24.12 8.30Q22.80 7.87 20.45 7.87L20.45 7.87Q20.02 7.87 19.78 7.92ZM18.12 9.67L18.12 9.67L18.12 8.04Q16.42 8.23 16.42 8.83L16.42 8.83Q16.42 9.62 18.12 9.67Z"></path><line x1="9.0072" y1="30.4" x2="21.0168" y2="30.4" stroke="#000000" stroke-linecap="round"></line></svg>